<?xml version="1.0" encoding="utf-8"?>
<!-- Generator: Adobe Illustrator 23.0.1, SVG Export Plug-In . SVG Version: 6.00 Build 0)  -->
<svg version="1.1" id="Layer_1" xmlns="http://www.w3.org/2000/svg" xmlns:xlink="http://www.w3.org/1999/xlink" x="0px" y="0px"
	 viewBox="0 0 1600 240" style="enable-background:new 0 0 1600 240;" xml:space="preserve">
<style type="text/css">
	.st0{opacity:0.45;}
	.st1{fill:#003B7B;}
</style>
<polygon class="st0" points="1290.9,25.1 1287,25.1 1283,25.1 1267,25.1 1267,36 1283,36 1287,36 1290.9,36 1290.9,205.2 
	1301.8,205.2 1301.8,25 1290.9,25 "/>
<path class="st0" d="M1472.6,45.1c-3.7,1.3-7.3,2.9-10.7,4.8c18.7,14.8,30.3,38,30.3,65.2c0,27.2-11.6,50.4-30.3,65.2
	c3.4,1.9,7,3.5,10.7,4.8c18.8-16.3,30.7-40.6,30.7-70C1503.2,85.7,1491.4,61.4,1472.6,45.1"/>
<path class="st0" d="M1411,197.5c-46.4,0-81.1-35.3-81.1-82.4c0-47.2,34.7-82.4,81.1-82.4c8.5,0,16.6,1.2,24.2,3.4
	c3.3-2.6,6.7-4.9,10.3-7.1c-10.6-4-22.3-6.2-34.4-6.2c-50.9,0-92.3,37.4-92.3,92.3c0,54.9,41.4,92.3,92.3,92.3
	c12.2,0,23.8-2.2,34.4-6.2c-3.6-2.1-7-4.5-10.3-7.1C1427.6,196.3,1419.5,197.5,1411,197.5"/>
<path class="st0" d="M1498.2,197.5c-8.5,0-16.6-1.2-24.2-3.4c-1.5-0.5-3-1-4.5-1.6c-1.5-0.5-3-1.1-4.4-1.7
	c-3.7-1.6-7.2-3.4-10.5-5.5c-1.3-0.8-2.6-1.6-3.8-2.5c-1.2-0.8-2.3-1.7-3.5-2.6c-18.7-14.8-30.2-38-30.2-65.2
	c0-27.2,11.6-50.4,30.2-65.2c1.1-0.9,2.3-1.8,3.5-2.6c1.2-0.9,2.5-1.7,3.8-2.5c3.3-2.1,6.8-4,10.5-5.5c1.4-0.6,2.9-1.1,4.4-1.7
	c1.5-0.5,3-1.1,4.5-1.6c7.6-2.2,15.7-3.4,24.2-3.4c46.4,0,81.1,35.3,81.1,82.4C1579.4,162.3,1544.6,197.5,1498.2,197.5 M1498.2,22.8
	c-12.2,0-23.8,2.2-34.4,6.2c-1.6,0.6-3.2,1.2-4.8,1.9c-1.5,0.7-3,1.4-4.4,2.1c-3.7,1.9-7.2,4-10.5,6.3c-1.3,0.9-2.6,1.8-3.8,2.8
	c-1.2,1-2.4,1.9-3.6,3c-18.8,16.3-30.7,40.6-30.7,70c0,29.4,11.9,53.7,30.7,70c1.2,1,2.4,2,3.6,3c1.2,1,2.5,1.9,3.8,2.8
	c3.4,2.3,6.8,4.4,10.5,6.3c1.5,0.7,2.9,1.4,4.4,2.1c1.6,0.7,3.1,1.3,4.8,1.9c10.6,4,22.3,6.2,34.4,6.2c50.9,0,92.3-37.4,92.3-92.3
	C1590.5,60.2,1549.1,22.8,1498.2,22.8"/>
<polygon class="st0" points="233.9,148.4 265,148.4 265,155.1 241.5,155.1 241.5,174.1 262.3,174.1 262.3,180.6 241.5,180.6 
	241.5,190.6 266,190.6 266,197.3 233.9,197.3 "/>
<polygon class="st0" points="287.6,148.4 318.6,148.4 318.6,155.1 295.2,155.1 295.2,174.1 316,174.1 316,180.6 295.2,180.6 
	295.2,190.6 319.6,190.6 319.6,197.3 287.6,197.3 "/>
<path class="st0" d="M337.7,187.8l6.3-3.4c2.3,3.8,5.2,6.8,11.2,6.8c5,0,8.5-2.7,8.5-6.7c0-4.2-2.9-6.1-8.2-8.5l-3.2-1.4
	c-7.1-3.2-11.4-6.7-11.4-14.3c0-7.3,5.6-12.4,13.7-12.4c6.5,0,10.8,2.4,13.8,7.7l-6,3.7c-1.9-3.2-4-4.7-7.8-4.7
	c-3.9,0-6.3,2.4-6.3,5.7c0,3.7,2.1,5.3,7,7.5l3.2,1.4c8.3,3.7,12.8,7.5,12.8,15.4c0,8.5-6.7,13.5-15.9,13.5
	C346.1,197.9,340.5,193.3,337.7,187.8"/>
<polygon class="st0" points="402.7,155.1 388.2,155.1 388.2,148.4 424.8,148.4 424.8,155.1 410.3,155.1 410.3,197.3 402.7,197.3 "/>
<rect x="444.6" y="148.4" class="st0" width="7.5" height="48.9"/>
<path class="st0" d="M517,178.2c9.7,0,13.6-4.2,13.6-11.5c0-7.3-4-11.6-13.6-11.6h-4.3v23.1H517z M538.9,197.3h-8.8l-8.8-12.9
	c-1.4,0.1-2.7,0.3-4.1,0.3h-4.6v12.6h-7.6v-48.9h12.2c13.5,0,21,7,21,18.3c0,7.5-3.4,12.7-9.8,15.5L538.9,197.3z"/>
<path class="st0" d="M587.2,184l-6.1-15.2c-1.2-2.9-2.4-7.3-2.4-7.3s-1.1,4.4-2.4,7.3l-6.1,15.2H587.2z M578.4,147.9h0.9l21.4,49.4
	h-7.9l-2.8-6.9h-22.3l-2.8,6.9h-7.3L578.4,147.9z"/>
<polygon class="st0" points="620.3,148.4 627.9,148.4 627.9,174.7 651.4,174.7 651.4,148.4 659,148.4 659,197.3 651.4,197.3 
	651.4,181.5 627.9,181.5 627.9,197.3 620.3,197.3 "/>
<path class="st0" d="M678.7,148.4h8.1l11,26.2c1.4,3.2,3,8.7,3,8.7s1.4-5.4,2.9-8.7l10.8-26.2h7.4L701,197.8h-0.9L678.7,148.4z"/>
<path class="st0" d="M741.4,180.1v-31.7h7.6v31.3c0,7.9,3.9,11.4,11,11.4c7.1,0,11.1-3.5,11.1-11.4v-31.3h7.5v31.7
	c0,11.9-8,17.8-18.6,17.8C749.3,197.9,741.4,192,741.4,180.1"/>
<path class="st0" d="M798,187.8l6.3-3.4c2.3,3.8,5.2,6.8,11.2,6.8c5,0,8.5-2.7,8.5-6.7c0-4.2-2.9-6.1-8.2-8.5l-3.2-1.4
	c-7.1-3.2-11.4-6.7-11.4-14.3c0-7.3,5.6-12.4,13.7-12.4c6.5,0,10.8,2.4,13.8,7.7l-6,3.7c-1.9-3.2-4-4.7-7.8-4.7
	c-3.9,0-6.3,2.4-6.3,5.7c0,3.7,2.1,5.3,7,7.5l3.2,1.4c8.3,3.7,12.8,7.5,12.8,15.4c0,8.5-6.7,13.5-15.9,13.5
	C806.3,197.9,800.7,193.3,798,187.8"/>
<path class="st0" d="M873.6,138.1c0-2.4,2.1-4.3,4.3-4.3c2.3,0,4.4,1.9,4.4,4.3c0,2.4-2.1,4.4-4.4,4.4
	C875.7,142.5,873.6,140.5,873.6,138.1 M859.6,138.1c0-2.4,2.1-4.3,4.4-4.3c2.3,0,4.3,1.9,4.3,4.3c0,2.4-2,4.4-4.3,4.4
	C861.7,142.5,859.6,140.5,859.6,138.1 M852.3,180.1v-31.7h7.6v31.3c0,7.9,3.9,11.4,11,11.4c7.1,0,11.1-3.5,11.1-11.4v-31.3h7.5v31.7
	c0,11.9-8,17.8-18.6,17.8C860.3,197.9,852.3,192,852.3,180.1"/>
<polygon class="st0" points="913.9,148.4 921.5,148.4 921.5,190.6 944.1,190.6 944.1,197.3 913.9,197.3 "/>
<rect x="964.3" y="148.4" class="st0" width="7.5" height="48.9"/>
<path class="st0" d="M1007.2,169.1l15.8-20.7h8.6l-17.3,22.8l19.2,26h-9.2l-15.1-20.4l-5.2,6.4v14h-7.6v-48.8h7.6v20.1
	c0,2.2-0.3,5.2-0.6,7.2C1004.5,173.5,1005.9,170.8,1007.2,169.1"/>
<path class="st0" d="M1090.7,172.9c0-10.4-7.2-18.2-17.4-18.2c-10.2,0-17.5,7.8-17.5,18.2c0,10.4,7.3,18.2,17.5,18.2
	C1083.5,191.1,1090.7,183.3,1090.7,172.9 M1048.1,172.9c0-14.6,11.2-25.1,25.2-25.1c13.9,0,25.1,10.5,25.1,25.1
	c0,14.6-11.2,25.1-25.1,25.1C1059.3,197.9,1048.1,187.5,1048.1,172.9"/>
<path class="st0" d="M1160.4,172.9c0-10.4-7.2-18.2-17.4-18.2c-10.2,0-17.4,7.8-17.4,18.2c0,10.4,7.3,18.2,17.4,18.2
	C1153.2,191.1,1160.4,183.3,1160.4,172.9 M1117.8,172.9c0-14.6,11.2-25.1,25.2-25.1c13.9,0,25.1,10.5,25.1,25.1
	c0,14.6-11.2,25.1-25.1,25.1C1129,197.9,1117.8,187.5,1117.8,172.9"/>
<polygon class="st0" points="1190.2,148.4 1197.9,148.4 1197.9,190.6 1220.4,190.6 1220.4,197.3 1190.2,197.3 "/>
<path class="st1" d="M232.3,40.2c1.3-1.3,2.7-2.1,4.2-2.6c1.5-0.4,3-0.7,4.6-0.7h6.6c1.7,0,3.3,0.1,4.7,0.4c1.3,0.2,1.9,0.6,1.9,0.8
	c0.1,0.3,0.1,0.9,0.1,1.9c0,1,0,1.6,0,2v51.8c0,2-0.1,3.6-0.3,4.9c-0.2,1.2-0.6,2.3-1.2,3.1c-0.6,0.8-1.4,1.4-2.6,1.9
	c-1.2,0.5-2.8,0.8-4.9,1c-0.2,0.1-0.5,0.1-1.2,0.1c-0.8,0-1.6,0.1-2.3,0.4c-0.6,0.3-1.4,0.8-1.4,2.3c0,1.6,1,1.9,1.5,1.9
	c0.6,0.1,1.2,0.1,1.8,0.1c2.6,0,5.2-0.1,7.7-0.3c5.1-0.4,11-0.3,16.1,0c2.8,0.2,5.6,0.3,8.5,0.3c0.9,0,1.7,0,2.2-0.1
	c0.9-0.1,1.3-1,1.3-2.5c0-0.7-0.3-1.9-2.5-2.2c-1-0.1-2.1-0.2-3.3-0.4l-1-0.1c-1.5-0.2-2.9-0.6-4.3-1.2c-1.2-0.6-2-1.7-2.3-3.5
	c-0.2-1.1-0.3-2.2-0.4-3.3c0-1.1-0.1-2.3-0.1-3.4c0.1-6.2,0.1-12.6-0.1-18.9c-0.2-6.1-0.2-12.4-0.1-18.8l0.2-13.1
	c0-1.6,0.1-2.8,0.3-3.6c0.2-0.9,0.4-1.3,0.6-1.4c0.2-0.2,0.3-0.2,0.6-0.2h0c0.9,0.1,2,0.1,3.6,0c2-0.1,4.7-0.1,7.4,0.1
	c1.6,0.1,3.1,0.3,4.5,0.5c1.4,0.2,2.5,0.6,3.5,1.1c0.9,0.5,1.5,1,1.8,1.8c0.4,1,0.5,2,0.5,3.1c-0.1,1.2-0.2,2.3-0.3,3.3
	c-0.1,1.1-0.1,2,0.1,2.8c0.1,0.6,0.5,1.5,2.1,1.5c1,0,2.2-0.5,2.9-2.8c0.5-1.6,0.8-3.5,1.1-5.7c0.3-2.1,0.5-4.3,0.7-6.6
	c0.2-2.2,0.5-3.9,1-5.2c0.3-0.9,0.3-1.9,0-3c-0.3-0.8-1-1.8-2.9-1.8c-0.4,0-1,0.2-1.5,1c-0.3,0.4-0.6,0.9-1,1.5
	c-0.4,0.5-0.9,1-1.4,1.5c-0.5,0.4-1.1,0.7-1.8,0.8c-1,0.1-2.1,0.2-3.2,0.3c-4.6,0.1-9,0.1-13.1,0.2c-7,0.2-15,0.1-23-0.1
	c-4.3-0.1-8.7-0.3-13.1-0.5c-0.9-0.1-1.7-0.3-2.2-0.6c-0.5-0.4-1-0.8-1.3-1.2c-0.3-0.5-0.6-0.9-0.9-1.2c-0.5-0.7-1-0.8-1.4-0.8
	c-1.1,0-2,0.3-2.6,0.9c-0.6,0.5-1,1.2-1.3,2c-0.3,0.8-0.4,1.6-0.5,2.6l-0.2,2.5c-0.4,3.7-0.8,6.5-1.4,8.5c-0.6,2.1-0.9,3.8-0.9,5
	c0,1,0.3,1.7,0.8,2.1c0.5,0.4,1.1,0.6,2,0.6c0.6,0,1.1-0.5,1.9-1.8c0.6-1.1,1.3-2.2,1.9-3.4c0.6-1.3,1.3-2.5,1.8-3.6
	C231.7,41,232.1,40.4,232.3,40.2"/>
<path class="st1" d="M315.8,91.5c0.8-2.4,1.7-5.1,2.8-8c1-2.8,2.2-5.7,3.4-8.6c0.8-0.2,1.8-0.3,3-0.3c2.7-0.2,5.8-0.1,8.5-0.1
	c1.4,0,2.5,0.1,3.4,0.1h2c1.2,0,2.3,0,3.5,0.2c1,0.1,1.7,0.4,2.2,0.8c0,0,0.1,0.2,0.5,0.9c0.3,0.6,0.6,1.2,0.9,1.9
	c1.1,2.6,2.1,5,3.1,7.5c1,2.4,1.9,4.6,2.7,6.6l2,5.2c0.6,1.5,1,2.5,1.2,3.2l0.2,0.7c0.1,0.2,0.1,0.4,0.1,0.5c0,1.2-0.6,1.5-1,1.6
	c-1,0.3-2,0.4-3.2,0.5c-1.2,0.1-2.4,0.2-3.4,0.3c-1.8,0.3-2.1,1.4-2.1,2c0,0.8,0.3,1.5,1,2.1c0.6,0.5,1.3,0.8,2.1,0.8
	c2.6,0,5.1-0.1,7.5-0.3c4.1-0.4,8.3-0.5,12.4,0c1.7,0.2,3.4,0.3,5.2,0.3h1.2c0.8,0,1.6-0.1,2.4-0.4c1.4-0.5,1.6-1.4,1.6-2
	c0-1.2-0.6-2.1-1.8-2.4c-0.9-0.2-1.9-0.5-3.1-0.7c-1.1-0.2-2.2-0.5-3.4-0.9c-1-0.4-1.8-1.1-2.4-2.3c-3.6-7.5-7.1-15.2-10.4-22.8
	c-3.2-7.5-6.4-15.3-9.4-23.1c-1.6-4.1-3.3-8.2-5-12.4c-1.7-4.2-3.4-8.3-5-12.4c-0.2-0.4-0.4-0.8-0.7-1.3c-0.4-0.6-1-0.9-1.7-0.9
	c-0.8,0-1.4,0.2-1.7,0.6c-0.2,0.3-0.4,0.7-0.6,1.1c-2.6,6.5-5.3,12.9-7.9,19.4c-2.7,6.4-5.3,12.9-7.9,19.4
	c-1.6,3.8-3.1,7.6-4.7,11.4c-1.5,3.6-3,7.3-4.5,11.4c-0.2,0.5-0.5,1.3-0.9,2.3c-0.4,1-0.8,2.1-1.3,3.1c-0.4,0.8-0.7,1.6-1,2.4
	l-0.3,0.7c-0.5,1.1-0.8,1.6-0.9,1.8c-0.6,0.9-1.2,1.4-1.9,1.7c-0.8,0.3-1.7,0.5-2.5,0.6c-0.9,0.2-1.6,0.4-2.3,0.7
	c-0.8,0.4-1.2,1.2-1.2,2.4c0,0.6,0.2,1.1,0.5,1.6c0.3,0.4,0.8,0.8,1.7,0.8c1.6,0,3.1-0.1,4.5-0.3c3.1-0.4,7.3-0.3,11.2,0.1
	c2.4,0.2,4.7,0.4,7,0.4c0.7,0,1.4-0.2,2-0.8c0.6-0.5,0.8-1.2,0.8-1.9c0-1.4-0.8-2.3-2.2-2.6c-1.1-0.2-2.4-0.4-3.9-0.6
	c-1.3-0.1-2.5-0.4-3.6-0.8c-0.6-0.2-1.3-0.7-1.3-2.3c0-0.1,0.1-0.7,0.7-2.8C314.5,95.9,315.1,93.9,315.8,91.5 M324.7,68.7
	c1.3-3,2.3-5.5,3.1-7.5c0.9-2.2,1.8-4.2,2.5-6c0.7-1.8,1.4-3.5,2.1-5.2c0.6-1.3,1.2-2.9,2-4.6c0.2,0.4,0.4,0.9,0.6,1.6
	c0.6,1.7,1.3,3.8,2.2,6.3c0.9,2.5,1.8,5.1,2.8,7.9c0.9,2.6,1.8,5,2.6,7.3c-0.1,0-0.2,0.1-0.3,0.1c-4.4,0-7.8,0-10.2,0.1
	c-2.5,0-4.3,0.1-5.5,0.1H324.7z"/>
<path class="st1" d="M456.6,114c0.5,0.1,1.1,0.1,1.8,0.2c0.7,0.1,1.5,0.1,2.2,0.1c1.9,0,3.2-0.1,4.1-0.5l0.3-0.2
	c0.8-0.8,1.2-1.5,1.2-2.1c0-0.6-0.2-1.5-1.7-1.9c-0.8-0.2-1.5-0.4-2.4-0.8c-2.9-0.6-5.4-1.9-7.6-3.9c-2.2-2-4.3-4.3-6.1-7
	c-1.8-2.7-3.5-5.5-5-8.5c-1.5-3-2.9-5.9-4.2-8.6c-1.3-2.7-2.7-5.1-4-7.1c-1-1.5-2.1-2.7-3.2-3.4c1.5-0.8,3-1.6,4.5-2.6
	c1.9-1.2,3.7-2.7,5.3-4.3c1.6-1.6,2.9-3.5,3.9-5.5c1-2,1.5-4.3,1.5-6.7c0-4.3-0.8-7.9-2.5-10.7c-1.6-2.8-3.7-5-6.1-6.7
	c-2.4-1.6-5-2.8-7.8-3.4c-2.7-0.6-5.3-0.9-7.7-0.9c-2.7,0-5.5,0-8.2,0.2c-2.7,0.1-5.4,0.2-8.2,0.2h-9.3c-0.8,0-1.5,0-2.3-0.1
	c-1.7-0.1-3.3-0.2-4.9,0.2c-0.6,0.1-1.6,0.7-1.6,2.4c0,0.9,0.5,1.6,1.3,1.9c0.6,0.2,1.4,0.4,2.4,0.5l2.8,0.2
	c0.9,0.1,1.8,0.3,2.7,0.5c0.8,0.3,1.4,0.8,1.9,1.4c0.5,0.7,0.7,1.7,0.7,2.9c0,6,0,12-0.2,18.1c-0.1,6.1-0.2,12.2-0.2,18.1v22
	c0,1.4-0.2,2.4-0.7,3.2c-0.5,0.8-1.2,1.4-2,1.8c-0.8,0.5-1.7,0.8-2.6,1c-1,0.2-1.9,0.3-2.8,0.5c-0.9,0.1-1.7,0.3-2.3,0.5
	c-1.1,0.4-1.3,1.2-1.3,1.6c0,1.3,0.2,2,0.7,2.3c0.4,0.3,1.1,0.4,2.2,0.4c2.2,0,4.5-0.1,6.6-0.3c4.7-0.5,9.3-0.4,14,0.1
	c2.6,0.2,5.2,0.4,7.8,0.4c1.5,0,2.6-0.1,3.4-0.3c0.6-0.2,1.5-0.7,1.5-2.5c0-0.8-0.4-1.5-1.2-1.7c-0.6-0.2-1.1-0.2-1.8-0.2
	c-0.4,0-0.6,0-0.6,0l-0.2-0.1c-1.4-0.3-2.7-0.5-3.9-0.7c-1.1-0.1-2-0.4-2.7-0.8c-0.7-0.4-1.2-0.9-1.6-1.7c-0.4-0.8-0.6-2.1-0.6-3.9
	v-22c0-2.1,0.3-2.8,0.4-3.1c0.1-0.1,0.4-0.5,2.1-0.5c2.4,0,4.5,0.6,6.1,1.8c1.7,1.2,3.2,2.8,4.4,4.7c1.3,1.9,2.5,4.1,3.5,6.5
	c1,2.4,2.1,4.8,3.4,7c2.2,5.6,5.4,10.5,9.5,14.4C445.1,110.4,450.4,112.9,456.6,114 M433.2,59.3c-1,2.1-2.4,3.7-4.1,4.9
	c-1.7,1.2-3.8,2-6.2,2.5c-2.4,0.5-5.1,0.7-7.9,0.7c-1.2,0-2.1-0.1-2.6-0.3c-0.5-0.2-0.7-0.5-0.8-0.7c-0.1-0.4-0.2-1-0.2-1.6
	c0-0.8,0.1-1.7,0.1-2.8c0-2.8,0-6.1,0.1-9.6c0.1-3.6,0.1-6.8,0.1-9.6v-3.6c0-1.5,0.3-2.7,1-3.5c0.4-0.5,1.6-1.1,4.4-1.1
	c2.6,0,4.9,0.4,7.1,1.1c2.1,0.7,4,1.8,5.5,3.2c1.5,1.4,2.8,3.1,3.6,5.2c0.9,2.1,1.3,4.5,1.3,7.2C434.7,54.5,434.2,57.2,433.2,59.3"
	/>
<path class="st1" d="M485.3,37h6.6c1.7,0,3.3,0.1,4.7,0.4c1.3,0.2,1.9,0.6,1.9,0.8c0.1,0.4,0.1,1.2,0.2,1.9c0,0.9,0,1.6,0,1.9v51.8
	c0,1.9-0.1,3.6-0.3,4.9c-0.2,1.2-0.6,2.3-1.2,3.1c-0.6,0.8-1.4,1.4-2.6,1.9c-1.2,0.5-2.8,0.8-4.9,1c-0.2,0-0.5,0.1-1.2,0.1
	c-0.8,0-1.6,0.1-2.3,0.4c-0.6,0.2-1.4,0.8-1.4,2.3c0,1.6,1,1.9,1.5,1.9c0.6,0.1,1.3,0.1,1.9,0.1c2.6,0,5.2-0.1,7.7-0.3
	c5.1-0.4,10.9-0.3,16.1,0c2.8,0.2,5.6,0.3,8.5,0.3c0.9,0,1.7,0,2.2-0.1c0.9-0.1,1.3-0.9,1.3-2.4c0-0.7-0.3-1.9-2.5-2.2
	c-1-0.1-2.2-0.2-3.4-0.4l-0.8-0.1c-1.5-0.2-2.9-0.6-4.3-1.2c-1.2-0.6-2-1.7-2.3-3.5c-0.2-1.1-0.3-2.2-0.4-3.3c0-1.1,0-2.3,0-3.4
	c0.1-6.2,0.1-12.6-0.1-18.9c-0.2-6.2-0.2-12.5,0-18.8l0.2-13.1c0-1.6,0.1-2.8,0.3-3.6c0.2-0.9,0.4-1.2,0.6-1.4
	c0.2-0.2,0.3-0.3,0.6-0.2c0.9,0.1,2,0.1,3.6,0c2-0.1,4.7-0.1,7.4,0.1c1.6,0.1,3.1,0.3,4.5,0.5c1.4,0.2,2.5,0.6,3.5,1.1
	c0.9,0.5,1.5,1.1,1.8,1.7c0.4,1,0.6,2,0.5,3.1c-0.1,1.2-0.2,2.3-0.3,3.3c-0.1,1.1-0.1,2,0.1,2.8c0.1,0.6,0.6,1.5,2.1,1.5
	c1.4,0,2.4-0.9,2.9-2.8c0.5-1.6,0.8-3.5,1.1-5.7c0.3-2.2,0.5-4.4,0.6-6.6c0.2-2.2,0.5-3.9,1-5.2c0.3-0.9,0.3-1.9,0-3
	c-0.3-0.8-1-1.8-2.9-1.8c-0.4,0-1,0.2-1.5,1c-0.3,0.5-0.6,1-1,1.5c-0.4,0.5-0.9,1-1.4,1.5c-0.5,0.4-1.1,0.7-1.8,0.8
	c-1,0.1-2.1,0.2-3.2,0.3c-4.6,0.1-9,0.1-13.1,0.2c-7,0.2-15,0.1-23-0.1c-4.3-0.1-8.7-0.3-13.1-0.5c-0.9-0.1-1.7-0.3-2.2-0.6
	c-0.5-0.4-1-0.8-1.3-1.2c-0.3-0.5-0.6-0.9-0.9-1.2c-0.5-0.7-1-0.8-1.4-0.8c-1.1,0-2,0.3-2.6,0.9c-0.6,0.5-1,1.2-1.3,2
	c-0.3,0.8-0.4,1.6-0.5,2.6l-0.2,2.5c-0.3,3.7-0.8,6.5-1.4,8.5c-0.6,2.1-0.9,3.8-0.9,5c0,1,0.3,1.7,0.8,2.1c0.5,0.4,1.1,0.6,2,0.6
	c0.6,0,1.1-0.5,1.9-1.8c0.6-1.1,1.3-2.2,1.9-3.4c0.6-1.2,1.2-2.4,1.8-3.6c0.7-1.3,1.1-1.9,1.3-2.1c1.3-1.3,2.7-2.1,4.2-2.6
	C482.2,37.2,483.7,37,485.3,37"/>
<path class="st1" d="M591.9,111.4c3.1,0,6.3-0.2,9.5-0.7c3.2-0.5,6.4-1.3,9.4-2.5c3.5-1.4,6.3-3.4,8.2-6c1.9-2.5,3.3-5.4,4.3-8.6
	c0.9-3.1,1.5-6.5,1.7-9.9c0.2-3.4,0.3-6.8,0.3-9.9c0-1.9,0-3.9,0-5.8c0-1.9-0.1-3.8-0.1-5.8c0-2.1,0-4.6-0.1-7.5c0-2.8,0-5.6,0-8.2
	c0-2.6,0.2-4.9,0.4-6.8c0.3-2.6,0.7-2.9,0.8-2.9c0.1-0.1,0.6-0.3,1.8-0.4c1.1-0.1,2.2-0.3,3.3-0.6c1.2-0.3,2.2-0.6,3.1-1.1
	c1.4-0.7,1.6-1.7,1.6-2.4c0-0.7-0.3-1.6-1.9-2.2l-0.2,0c-1.9,0-3.8,0.1-5.8,0.2c-3.7,0.2-7.6,0.2-11.3,0c-1.9-0.1-3.8-0.2-5.7-0.2
	c-0.6,0-1.2,0.1-1.8,0.2c-0.5,0.1-1.2,0.6-1.2,1.9c0,1.5,0.7,2.3,1.4,2.6c0.7,0.4,1.7,0.8,2.7,0.9c1,0.2,2,0.4,3,0.5
	c0.9,0.1,1.6,0.4,2.1,0.9c0.5,0.5,0.9,1.4,1.1,2.8c0.2,1.5,0.3,3.2,0.3,5.1c0,1.9,0,3.9-0.1,6c-0.1,2.1-0.1,3.9-0.1,5.6v22.9
	c0,2.1-0.2,4.1-0.6,6.1c-0.6,3.5-1.5,6.6-2.6,9c-1.1,2.4-2.5,4.3-4.3,5.8c-1.7,1.5-3.9,2.6-6.4,3.2c-2.5,0.7-5.6,1-9.2,1
	c-3,0-5.7-0.3-8.2-0.9c-2.4-0.6-4.4-1.7-6.2-3.3c-1.7-1.6-3.2-3.8-4.2-6.5c-1.1-2.8-1.8-6.4-2-10.7c-0.1-2.2-0.2-4.4-0.3-6.6
	c0-2.2-0.1-4.4-0.1-6.6V50.2c0-1.1,0-2.2,0.1-3.4c0-1.2,0.1-2.4,0.2-3.5c0.1-1.1,0.2-2.1,0.4-3.1c0.1-0.9,0.3-1.6,0.5-2
	c0.4-1,1.1-1.6,2.1-1.9c1.1-0.4,2.3-0.6,3.5-0.8c1.2-0.2,2.3-0.5,3.3-0.8c1.2-0.4,1.9-1.3,1.9-2.6c0-1.1-0.7-1.8-1.8-2
	c-0.9-0.1-1.6-0.2-2.2-0.2c-2.5,0-5,0.1-7.4,0.3c-4.5,0.4-9.3,0.4-14,0c-2.2-0.2-4.6-0.3-6.9-0.3c-1.8,0-2.8,1-2.8,2.7
	c0,0.7,0.3,1.3,0.8,1.7c0.5,0.3,1,0.6,1.7,0.7c0.6,0.1,1.1,0.2,1.7,0.2c0.6,0,1,0.1,1.4,0.1h1.2c1.3,0,2.2,0.3,2.8,1
	c0.7,0.7,1.2,1.6,1.4,2.6c0.3,1,0.5,2.2,0.5,3.4c0,1.3,0.1,2.4,0.1,3.4c0,6-0.1,12.1-0.2,18c-0.1,6.1-0.2,12.1-0.2,18v3.9
	c0,0.7,0,1.3,0.1,2c0,0.6,0.1,1.3,0.2,2c0.4,4.2,1.5,7.8,3.2,10.5c1.7,2.8,3.9,5.1,6.5,6.7c2.6,1.7,5.6,2.9,9,3.6
	C584.7,111.1,588.2,111.4,591.9,111.4"/>
<path class="st1" d="M706.4,11.8c-1.3,1.2-2,2.8-2,4.6c0,1.8,0.6,3.3,1.9,4.5c1.3,1.1,2.8,1.7,4.5,1.7c1.7,0,3.3-0.6,4.5-1.6
	c1.3-1.1,2-2.6,2-4.5c0-1.6-0.6-3.2-1.8-4.5c-1.2-1.4-2.7-2-4.5-2C709.4,10,707.8,10.6,706.4,11.8"/>
<path class="st1" d="M743.3,102.3c1.9-2.5,3.3-5.4,4.3-8.6c0.9-3.1,1.5-6.5,1.7-9.9c0.2-3.4,0.3-6.7,0.3-9.9c0-1.9,0-3.9-0.1-5.8
	c0-1.9-0.1-3.8-0.1-5.8c0-2.1,0-4.6,0-7.5c0-2.8,0-5.6,0-8.2c0-2.6,0.2-4.9,0.4-6.8c0.3-2.5,0.7-2.9,0.8-2.9
	c0.2-0.1,0.6-0.3,1.8-0.5c1-0.1,2.1-0.3,3.3-0.6c1.2-0.3,2.3-0.6,3.2-1.1c1.4-0.7,1.6-1.7,1.6-2.4c0-0.7-0.3-1.6-1.9-2.2l-0.2,0
	c-1.9,0-3.8,0-5.8,0.2c-3.8,0.2-7.6,0.2-11.3-0.1c-2-0.1-3.9-0.2-5.7-0.2c-0.6,0-1.2,0.1-1.8,0.2c-0.5,0.1-1.2,0.6-1.2,1.9
	c0,1.6,0.7,2.3,1.3,2.6c0.7,0.4,1.6,0.8,2.7,0.9c1,0.2,2,0.3,3,0.5c0.9,0.1,1.6,0.4,2.1,0.9c0.5,0.5,0.9,1.4,1.1,2.7
	c0.2,1.5,0.3,3.2,0.3,5.1c0,1.9,0,3.9-0.1,6c-0.1,2.1-0.1,3.9-0.1,5.6v22.9c0,2.1-0.2,4.1-0.6,6.1c-0.6,3.6-1.5,6.6-2.6,9
	c-1.1,2.4-2.5,4.3-4.3,5.8c-1.7,1.5-3.9,2.6-6.4,3.2c-2.5,0.7-5.6,1-9.2,1c-3,0-5.7-0.3-8.2-0.9c-2.4-0.6-4.5-1.7-6.2-3.3
	c-1.7-1.6-3.2-3.8-4.2-6.5c-1.1-2.8-1.8-6.4-2-10.7c-0.1-2.1-0.2-4.2-0.3-6.6c0-2.2,0-4.4,0-6.6V50.2c0-1.1,0-2.2,0-3.4
	c0-1.2,0.1-2.4,0.2-3.5c0.1-1.1,0.2-2.1,0.4-3.1c0.1-0.9,0.3-1.5,0.5-2c0.4-1,1.1-1.6,2.1-1.9c1.2-0.4,2.3-0.6,3.5-0.8
	c1.3-0.2,2.4-0.5,3.3-0.8c1.2-0.4,1.9-1.3,1.9-2.6c0-1.1-0.7-1.8-1.8-2c-0.9-0.1-1.7-0.2-2.3-0.2c-2.5,0-5,0.1-7.4,0.3
	c-4.5,0.4-9.4,0.4-14,0c-2.2-0.2-4.5-0.3-6.8-0.3c-1.8,0-2.8,1-2.8,2.7c0,0.7,0.3,1.3,0.9,1.7c0.5,0.3,1,0.6,1.6,0.7
	c0.5,0.1,1.1,0.2,1.7,0.2c0.5,0,1,0.1,1.4,0.1h1.2c1.2,0,2.2,0.3,2.8,1c0.7,0.7,1.1,1.5,1.5,2.6c0.3,1,0.5,2.2,0.5,3.4
	c0,1.3,0,2.4,0,3.4c0,6-0.1,12.1-0.2,18c-0.1,6-0.2,12-0.2,18v4c0,0.7,0,1.3,0.1,2c0,0.7,0.1,1.3,0.2,2c0.4,4.2,1.5,7.8,3.2,10.5
	c1.7,2.8,3.9,5,6.5,6.7c2.6,1.7,5.6,2.9,9,3.6c3.3,0.7,6.8,1,10.5,1c3.1,0,6.3-0.2,9.5-0.7c3.2-0.5,6.4-1.3,9.5-2.4
	C738.7,106.9,741.4,104.9,743.3,102.3"/>
<path class="st1" d="M731.9,22.6c0.2,0.1,0.4,0.1,0.7,0.1c1.9,0,3.5-0.6,4.8-1.8c1.3-1.2,2-2.8,2-4.8c0-1.8-0.6-3.3-1.8-4.5
	c-1.2-1.2-2.7-1.7-4.5-1.7c-1.9,0-3.4,0.6-4.6,1.8c-1.2,1.2-1.8,2.7-1.8,4.5c0,1.6,0.5,3,1.5,4.2C729,21.7,730.3,22.4,731.9,22.6"/>
<path class="st1" d="M826.6,110.3c1.1,0,1.6-1.4,2-2.6c0.4-1.4,0.9-3.2,1.4-5.5c0.6-2.3,1.4-4.8,2.4-7.5c1-2.8,2.4-5.6,4.1-8.4
	l0.2-0.3l-0.1-0.3c-0.4-0.8-1.1-1.4-2.1-1.6c-1-0.2-1.9,0-2.8,0.7c-0.2,0.2-0.5,0.6-1.6,2.5c-0.8,1.4-1.7,2.9-2.8,4.7
	c-1.1,1.7-2.2,3.4-3.4,5c-1.2,1.5-2.3,2.6-3.4,3.2c-0.6,0.4-1.8,0.9-3.5,1.5c-1.7,0.6-3.7,1.1-5.9,1.4c-2.1,0.3-4.4,0.3-6.6,0.1
	c-2.2-0.3-4.2-1-5.8-2.3c-0.4-0.3-0.7-1-1-2c-0.3-1.1-0.5-2.3-0.6-3.6c-0.1-1.4-0.2-2.8-0.3-4.3c0-1.5-0.1-2.9-0.1-4.2v-4.1
	c0-6.5,0-12.9,0.1-19.1C797,57.3,797,51,797,44.5c0-0.6,0-1.2,0.1-2c0-0.8,0.1-1.5,0.2-2.3c0.1-0.8,0.3-1.5,0.5-2.1
	c0.2-0.6,0.5-1.1,0.9-1.4c0.6-0.5,1.4-0.8,2.4-0.9l3.4-0.3c1.2-0.1,2.2-0.3,3.1-0.6c1.1-0.3,1.7-1.1,1.7-2.3c0-0.8-0.4-1.5-1.2-2.2
	l-0.2-0.2h-0.2c-3.1,0-5.8,0.1-8.1,0.2c-4.7,0.3-10,0.3-14.8-0.2c-2.4-0.2-4.9-0.4-7.4-0.4c-0.8,0-1.7,0.1-2.5,0.2
	c-0.7,0.1-1.8,0.6-1.8,2.4c0,1.3,0.8,2.2,2.2,2.4c1.1,0.2,2.4,0.4,3.8,0.5c1.3,0.2,2.6,0.5,3.8,1c1,0.4,1.7,1.3,1.9,2.7
	c0.3,1.4,0.4,3,0.4,4.7v31.2c0,2,0.1,4.3,0.2,7.2c0.1,2.8,0.2,5.6,0.2,8.4c0,2.7-0.1,5.2-0.4,7.4c-0.3,2.1-0.8,3.6-1.5,4.3
	c-0.9,0.8-1.9,1.3-3,1.5c-1.2,0.2-2.3,0.3-3.4,0.4c-1.1,0.1-2.1,0.3-2.9,0.5c-0.7,0.2-1.5,0.9-1.5,2.5c0,0.6,0.2,1.1,0.6,1.6
	c0.4,0.5,1,0.8,1.6,0.8c2.3,0,4.4-0.1,6.2-0.2c1.7-0.1,3.4-0.3,5-0.4c1.6-0.1,3.3-0.3,5-0.4c1.7-0.1,3.7-0.2,6.1-0.2
	c4.7,0,9.5,0.3,14.5,1C817,109.9,821.9,110.3,826.6,110.3"/>
<path class="st1" d="M868.5,109.2c3.2,0.3,6.3,0.5,9.3,0.2c1.4-0.2,2.1-1,2.1-2.4c0-0.6-0.2-1.5-1.7-1.9c-0.8-0.2-1.7-0.4-2.8-0.6
	c-1-0.2-2.1-0.4-3.2-0.6c-1-0.2-1.8-0.5-2.3-1c-0.7-0.7-1.2-1.7-1.3-2.9c-0.2-1.4-0.3-2.7-0.3-3.8V68.8c0-4.5,0.1-9,0.2-13.4
	c0.1-4.5,0.2-9,0.2-13.4c0-1.3,0-2.4,0.1-3.3c0.1-0.8,0.3-1.5,0.7-2c0.4-0.5,1.1-0.9,2-1.2c1-0.3,2.5-0.4,4.3-0.4
	c1.1,0,2-0.1,2.8-0.3c0.6-0.2,1.6-0.7,1.6-2.4c0-0.3-0.1-0.7-0.3-1.1c-0.2-0.5-0.4-0.7-0.6-1l-0.2-0.2h-9.6c-1,0-2,0-3.2,0.2
	c-1.1,0.1-2.1,0.2-3,0.2c-2,0-4.1-0.1-6.2-0.3c-2.1-0.2-4.2-0.3-6.3-0.3h-1.2c-0.6,0-1.3,0.1-2,0.2c-1,0.2-1.6,0.8-1.6,1.9
	c0,1.6,0.8,2.3,1.4,2.5c0.7,0.3,1.7,0.5,2.7,0.6c1,0.1,2,0.2,3,0.4c0.9,0.2,1.7,0.6,2.4,1.2c0.3,0.3,0.6,1.1,0.8,2.7
	c0.2,1.4,0.3,2.7,0.3,3.9v2c0,1.8,0,3.6,0,5.3c0,1.8-0.1,3.6-0.1,5.5l-0.1,37.4v2.3c0,1.3-0.1,2.7-0.3,4.1c-0.1,1.3-0.5,2.2-1.1,2.6
	c-0.6,0.6-1.4,1-2.4,1.2c-1.1,0.2-2.1,0.5-3,0.6c-0.9,0.2-1.8,0.4-2.6,0.7c-1.3,0.5-1.5,1.4-1.5,2c0,1.1,0.5,1.9,1.4,2.3
	c0.8,0.3,1.5,0.4,2.3,0.4h1.5c2.2,0,4.1-0.1,5.9-0.4C860.1,108.8,864.3,108.8,868.5,109.2"/>
<path class="st1" d="M918.2,78.7v-4.8c0-1,0-1.9,0-2.8c0.1-1.1,0.1-1.6,0.1-1.7c0-0.1,0-0.1,0-0.2c0.4,0.1,1,0.2,1.7,0.3
	c0.8,0.4,1.8,1.2,3.2,2.5c1.4,1.3,3,2.9,4.7,4.7c1.8,1.9,3.6,3.8,5.4,5.8c1.8,2.1,3.6,4.1,5.3,6.1c1.7,2,3.3,3.8,4.6,5.5l1,1.1
	c0.9,1.1,1.7,2,2.3,2.7c0.2,0.2,0.4,0.6,0.8,1.1c0.4,0.5,0.8,1,1.2,1.6c0.4,0.6,0.8,1.1,1.2,1.6c0.3,0.4,0.5,0.7,0.6,0.9
	c0.3,0.4,0.3,0.6,0.3,0.6c-0.5,0.2-0.9,0.3-1.4,0.3c-0.4,0-1,0-1.9-0.1c-1,0-2,0-3,0.2c-1,0.1-2,0.4-2.8,0.8
	c-1.2,0.6-1.5,1.5-1.5,2.2c0,1.1,0.3,1.9,1,2.2c0.5,0.2,1.2,0.3,2,0.3c2.6,0,5.4-0.1,8.3-0.3c5.1-0.3,10-0.4,14.9,0
	c2.3,0.2,4.6,0.3,6.8,0.3c0.4,0,1-0.1,1.8-0.2c1.3-0.2,1.6-1.1,1.7-1.6c0.1-1.9-1-2.6-1.6-2.8c-0.9-0.3-1.8-0.5-2.7-0.6
	c-1.7-0.4-3.3-1.1-4.8-2.1c-1.5-1-2.9-2.2-4.3-3.5c-1.3-1.3-2.7-2.7-4-4.3c-1.3-1.6-2.5-3-3.8-4.4c-0.5-0.5-1.5-1.5-2.9-3l-4.9-5.3
	c-1.8-2-3.8-4.1-5.9-6.4c-2.1-2.2-4-4.3-5.7-6.3c-1.7-2-3.2-3.6-4.5-5.1c-1.1-1.3-1.6-1.9-1.8-2.2c0.2-0.3,0.7-0.9,1.9-2
	c1.3-1.3,2.9-2.8,4.9-4.6c1.9-1.8,4-3.7,6.3-5.7c2.3-2,4.4-3.9,6.5-5.7c2.1-1.7,3.9-3.3,5.5-4.5c1.9-1.6,2.8-2.1,3.2-2.3
	c0.9-0.5,1.9-0.8,3-0.9c1.3-0.2,2.4-0.3,3.6-0.5c1.2-0.1,2.2-0.4,3-0.7c1-0.4,1.6-1.2,1.6-2.2c0-0.9-0.4-1.6-1.1-2
	c-0.6-0.3-1.3-0.5-1.9-0.5c-1.8,0-3.6,0.1-5.3,0.2c-3.6,0.2-7.6,0.2-11.2,0c-3-0.2-5.8-0.2-9-0.1c-1.3,0-2.3,0.7-2.7,1.9l0,1.1
	c0,0.6,0.3,1.7,2.1,1.9c1,0.1,2.1,0.2,3.3,0.3c1.1,0,2.2,0.1,3.2,0.3c0.9,0.1,0.9,0.5,0.9,0.6c0,0-0.1,0.5-1.3,1.9
	c-1,1.1-2.2,2.5-3.7,4c-1.5,1.5-3.1,3.1-5,4.8c-1.4,1.4-2.8,2.7-4.1,3.9l-1,1c-1.6,1.5-3.1,2.9-4.4,4.1c-1.3,1.2-2.3,2.1-2.8,2.6
	l-1.4,1.4c-0.6,0.6-1.2,1.1-1.9,1.7c-0.7,0.5-1.4,1-2.1,1.4c-0.5,0.3-1,0.4-1.4,0.5c0.1-0.6,0.1-0.9,0.1-1v-5.7c0-1.7,0-3.4,0-5
	c0-1.6-0.1-3.3-0.1-5v-5.7c0-2.9,0.6-4.2,1.1-4.7c0.8-0.8,1.7-1.2,2.7-1.3c1.1-0.1,2.2-0.1,3.3-0.1c1.4,0.1,2.3-0.2,2.8-1
	c0.2-0.3,0.3-0.7,0.4-1.1c0.1-0.3,0.2-0.6,0.3-0.8l0.1-0.3c0-0.5-0.3-1.2-1.4-1.6c-0.7-0.2-1.4-0.4-2-0.4h-1c-1.7,0-3.3,0.1-4.9,0.3
	c-1.5,0.2-3.1,0.3-4.7,0.3h-3.3c-1.8,0-3.6-0.1-5.4-0.3c-1.8-0.2-3.7-0.3-5.5-0.3h-1.2c-0.7,0-1.4,0.1-2.1,0.3
	c-1.3,0.3-1.5,1.3-1.5,1.8c0,1.1,0.4,1.9,1.1,2.4c0.6,0.4,1.4,0.7,2.3,0.8c0.8,0.1,1.7,0.1,2.7,0.1c0.8,0,1.6,0,2.3,0.1
	c1.1,0.2,1.7,0.7,2,1.6c0.3,1.1,0.5,2.2,0.5,3.3v13c0,7.6,0,14.5-0.2,21.2c-0.1,7-0.2,14.2-0.2,21.2c0,0.6,0,1.3-0.1,2.1
	c-0.1,0.8-0.2,1.5-0.4,2.3c-0.2,0.7-0.5,1.4-0.8,2c-0.3,0.6-0.7,1-1.3,1.2c-0.5,0.2-1.2,0.4-2.1,0.4c-1,0-2,0.1-3,0.2
	c-1,0.1-1.9,0.3-2.7,0.7c-0.9,0.4-1.5,1.2-1.5,2.4c0,1.1,0.6,1.8,1.8,2c0.9,0.2,1.6,0.2,2.3,0.2c3,0,6-0.1,8.7-0.3
	c2.7-0.2,5.6-0.3,8.6-0.3c1.5,0,2.9,0.1,4.4,0.3c1.5,0.2,3.1,0.3,4.5,0.3h1.4c0.8,0,1.6-0.2,2.3-0.6c0.6-0.3,1.3-0.9,1.3-2.2
	c0-1.2-0.7-1.7-1.1-1.8c-0.5-0.2-1.2-0.3-1.9-0.4c-0.7,0-1.3,0-1.9,0l-0.2,0c-0.4,0-0.6-0.1-0.7-0.1L924,104l-0.3,0
	c-1.3,0.1-2.4-0.1-3.1-0.6c-0.8-0.6-1.3-1.3-1.6-2.3c-0.4-1-0.6-2.1-0.7-3.4c-0.1-1.3-0.1-2.4-0.1-3.5c0-2.6,0-5.2,0.1-7.8
	C918.2,83.9,918.2,81.3,918.2,78.7"/>
<path class="st1" d="M1061,85.4c2.2-5.1,3.3-10.7,3.3-16.5c0-6.1-1.1-11.7-3.4-16.6c-2.2-5-5.3-9.3-9.1-12.9
	c-3.8-3.6-8.4-6.4-13.4-8.4c-5.1-2-10.5-3-16.2-3c-5.9,0-11.4,1.1-16.4,3.2c-5,2.1-9.3,5.1-13,8.9c-3.7,3.7-6.5,8.2-8.5,13.4
	c-2,5.1-3,10.7-3,16.7c0,6,1,11.5,3,16.5c2,5,4.8,9.4,8.3,13.1c3.5,3.7,7.8,6.6,12.8,8.7c5,2.1,10.4,3.1,16.2,3.1
	c5.9,0,11.5-1.2,16.7-3.4c5.2-2.3,9.8-5.4,13.6-9.2C1055.7,95.1,1058.8,90.6,1061,85.4 M1050.7,77c-0.1,4.4-0.8,8.7-2.2,12.6
	c-1.4,3.9-3.6,7.4-6.6,10.2c-3,2.9-7.1,4.8-12.2,5.7c-2,0.4-3.9,0.6-5.7,0.6c-3,0-5.7-0.5-8.1-1.5c-4-1.6-7.4-4-10.1-7.1
	c-2.8-3.1-5.1-6.8-6.8-10.9c-1.7-4.1-2.9-8.3-3.6-12.5c-0.8-4-1.2-8.2-1.1-12.6c0-4.3,0.7-8.4,2.1-12.1c1.3-3.7,3.5-7,6.5-9.8
	c2.9-2.8,7.1-4.6,12.3-5.6c2-0.4,3.8-0.5,5.6-0.5c2.7,0,5.2,0.4,7.5,1.2c3.9,1.4,7.3,3.5,10.2,6.4c2.9,2.9,5.3,6.4,7.2,10.5
	c1.9,4.1,3.3,8.4,4.1,12.9C1050.4,68.3,1050.7,72.5,1050.7,77"/>
<path class="st1" d="M1148.4,39.4c-3.8-3.6-8.3-6.4-13.4-8.4c-5.1-2-10.6-3-16.2-3c-5.9,0-11.4,1.1-16.4,3.2c-5,2.1-9.3,5.1-13,8.9
	c-3.7,3.8-6.5,8.3-8.5,13.4c-2,5.1-3.1,10.7-3.1,16.7c0,6,1,11.5,3,16.6c2,5,4.8,9.4,8.3,13.1c3.5,3.7,7.8,6.6,12.8,8.7
	c5,2.1,10.4,3.1,16.2,3.1c5.9,0,11.5-1.1,16.7-3.4c5.2-2.3,9.8-5.4,13.6-9.2c3.9-3.9,6.9-8.4,9.1-13.6c2.2-5.1,3.3-10.7,3.3-16.5
	c0-6.1-1.1-11.7-3.4-16.6C1155.3,47.3,1152.2,43,1148.4,39.4 M1147.3,77c-0.1,4.4-0.8,8.7-2.2,12.6c-1.4,3.9-3.6,7.4-6.6,10.2
	c-3,2.9-7.1,4.8-12.2,5.7c-2,0.4-3.9,0.6-5.7,0.6h0c-3,0-5.7-0.5-8.1-1.5c-4-1.6-7.4-4-10.1-7.1c-2.8-3.1-5.1-6.8-6.8-10.9
	c-1.7-4.1-2.9-8.3-3.7-12.5c-0.8-4-1.1-8.2-1.1-12.6c0-4.3,0.7-8.4,2.1-12.1c1.3-3.7,3.5-7,6.5-9.8c3-2.8,7.1-4.6,12.3-5.6
	c2-0.4,3.9-0.6,5.6-0.6c2.7,0,5.2,0.4,7.5,1.2c3.9,1.3,7.3,3.5,10.2,6.4c2.9,2.9,5.3,6.4,7.2,10.5c1.9,4.1,3.3,8.4,4.1,12.9
	C1147,68.3,1147.4,72.6,1147.3,77"/>
<path class="st1" d="M1222.7,110.3c1.1,0,1.6-1.4,2-2.6c0.4-1.4,0.9-3.2,1.5-5.5c0.6-2.2,1.4-4.8,2.3-7.5c1-2.8,2.4-5.6,4.1-8.4
	l0.2-0.3l-0.1-0.3c-0.4-0.8-1.1-1.4-2.1-1.6c-1-0.2-1.9,0-2.8,0.7c-0.2,0.2-0.5,0.6-1.6,2.6c-0.8,1.4-1.7,2.9-2.8,4.7
	c-1.1,1.7-2.2,3.4-3.4,5c-1.2,1.5-2.3,2.6-3.4,3.2c-0.6,0.4-1.8,0.9-3.5,1.5c-1.7,0.6-3.7,1.1-5.9,1.4c-2.1,0.3-4.4,0.3-6.6,0.1
	c-2.2-0.3-4.2-1-5.8-2.3c-0.4-0.3-0.7-1-1-2c-0.3-1.1-0.5-2.3-0.6-3.6c-0.1-1.3-0.2-2.8-0.3-4.3c0-1.5-0.1-2.9-0.1-4.2v-4.1
	c0-6.5,0-12.9,0.1-19.1c0.1-6.3,0.1-12.7,0.1-19.1c0-0.6,0-1.2,0-2c0-0.8,0.1-1.5,0.2-2.3c0.1-0.7,0.3-1.5,0.5-2.1
	c0.2-0.6,0.5-1.1,0.9-1.4c0.6-0.5,1.4-0.8,2.4-0.9l3.4-0.3c1.2-0.1,2.2-0.3,3.1-0.6c1.1-0.3,1.7-1.1,1.7-2.3c0-0.8-0.4-1.5-1.2-2.2
	l-0.2-0.2h-0.2c-3.1,0-5.7,0.1-8.1,0.2c-4.7,0.3-10,0.3-14.8-0.2c-2.4-0.2-4.9-0.4-7.4-0.4c-0.8,0-1.7,0.1-2.5,0.2
	c-0.7,0.1-1.8,0.6-1.8,2.4c0,1.3,0.8,2.2,2.2,2.4c1.1,0.2,2.4,0.4,3.8,0.5c1.3,0.2,2.6,0.5,3.8,1c1,0.4,1.7,1.3,1.9,2.7
	c0.3,1.4,0.4,3,0.4,4.7v31.2c0,1.9,0.1,4.3,0.2,7.3c0.1,2.8,0.2,5.6,0.2,8.4c0,2.7-0.1,5.2-0.4,7.4c-0.3,2.1-0.8,3.6-1.5,4.3
	c-0.9,0.8-1.9,1.3-3,1.5c-1.2,0.2-2.3,0.3-3.4,0.4c-1.1,0.1-2.1,0.3-2.8,0.5c-0.7,0.2-1.5,0.9-1.5,2.5c0,0.6,0.2,1.1,0.6,1.6
	c0.4,0.5,1,0.8,1.6,0.8c2.3,0,4.4-0.1,6.2-0.2c1.7-0.1,3.4-0.3,5-0.4c1.6-0.1,3.3-0.3,5-0.4c1.7-0.1,3.8-0.2,6.1-0.2
	c4.7,0,9.6,0.3,14.5,1C1213,109.9,1217.9,110.3,1222.7,110.3"/>
<path class="st1" d="M52.5,212.6c0-1.2,0-2.5,0-3.7c0-0.4,0-0.7,0-1c0-0.1,0-0.2,0.1-0.3c0,0,0.1-0.1,0.3-0.2
	c0.2-0.1,0.5-0.1,1.1-0.1c0.4,0,0.7,0,1-0.1c0.6-0.2,0.9-0.7,0.9-1.3c0-0.3-0.1-0.6-0.4-0.9l-0.2-0.2h-3.2c-0.3,0-0.7,0-1,0
	c-0.9,0.1-1.8,0.1-2.5,0c-0.5-0.1-1.1-0.1-1.8-0.1h-0.4c-0.2,0-0.4,0-0.7,0.1c-0.6,0.1-1,0.6-1,1.2c0,0.9,0.6,1.2,0.8,1.3
	c0.3,0.1,0.6,0.2,1,0.2c0.3,0,0.6,0.1,0.9,0.1c0.2,0,0.3,0.1,0.3,0.1c0,0,0.1,0.1,0.1,0.6c0.1,0.4,0.1,0.8,0.1,1.1v0.6
	c0,0.6,0,1.1,0,1.6c0,0.6,0,1.1,0,1.7l0,3c0,0.4,0,0.8-0.1,1.2c0,0.3-0.1,0.4-0.2,0.4c-0.1,0.1-0.3,0.2-0.5,0.2
	c-0.3,0.1-0.6,0.1-0.9,0.2c-0.3,0.1-0.6,0.1-0.9,0.2c-0.5,0.2-0.9,0.6-0.9,1.2c0,0.6,0.3,1.1,0.8,1.3c0.3,0.1,0.6,0.2,0.9,0.2H47
	c0.4,0,0.7,0,0.9,0c0.3,0,0.5-0.1,0.7-0.1c0.2,0,0.4-0.1,0.6-0.1c0.7-0.1,1.7,0,2.6,0.1c1,0.1,2,0.1,3,0.1c0.7-0.1,1.2-0.6,1.2-1.4
	c0-0.6-0.4-1-1-1.2c-0.3-0.1-0.6-0.1-0.9-0.2c-0.3-0.1-0.6-0.1-1-0.2c-0.2,0-0.3-0.1-0.4-0.2c-0.1,0-0.1-0.1-0.2-0.3
	c-0.1-0.3-0.1-0.6-0.1-0.8v-0.4C52.5,215.1,52.5,213.9,52.5,212.6"/>
<path class="st1" d="M69.2,218.2c-0.4,0.3-0.9,0.4-1.6,0.4c-0.8,0-1.4-0.2-1.9-0.5c-0.5-0.4-0.9-0.9-1.2-1.5
	c-0.3-0.7-0.5-1.4-0.7-2.1c-0.1-0.8-0.2-1.6-0.2-2.3c0-0.4,0-0.7,0-1.1l0.1-0.8c0.2-0.2,0.3-0.4,0.5-0.5c0.3-0.3,0.6-0.5,1-0.8
	c0.3-0.2,0.7-0.4,1.1-0.6c1-0.4,2-0.2,2.7,0.2c0.5,0.3,0.9,0.6,1.1,1.1c0.3,0.5,0.5,1,0.7,1.6c0.2,0.6,0.2,1.3,0.2,1.9
	c0,0.6-0.1,1.3-0.2,2c-0.1,0.7-0.4,1.3-0.7,1.8C70,217.4,69.6,217.8,69.2,218.2 M73.8,207.2c-0.6-0.7-1.4-1.2-2.2-1.6
	c-1.4-0.6-3.2-0.8-4.8-0.3c-0.6,0.2-1.1,0.4-1.6,0.7c-0.2,0.1-0.3,0.1-0.4,0.2c0.3-0.9,0.8-1.9,1.3-2.8c0.9-1.5,2-2.9,3.4-4.1
	c0.3-0.3,0.6-0.5,1-0.8c0.3-0.2,0.7-0.5,0.9-0.6c0.1,0,0.2-0.1,0.4-0.2c0.2-0.1,0.5-0.2,0.7-0.3c0.3-0.1,0.5-0.3,0.7-0.5
	c0.4-0.3,0.6-0.6,0.6-1c0-0.4-0.2-0.7-0.5-1c-0.2-0.2-0.3-0.3-0.5-0.4l-0.2-0.1l-0.3,0c-0.3,0-0.7,0.1-1.1,0.3
	c-0.3,0.1-0.6,0.3-0.9,0.4c-1.6,0.7-3.1,1.7-4.4,2.8c-1.4,1.1-2.6,2.4-3.6,3.8c-1,1.4-1.8,2.9-2.4,4.6c-0.6,1.7-0.9,3.4-0.9,5.2
	c0,0.9,0.1,1.9,0.3,2.8c0.2,0.9,0.5,1.8,0.9,2.6c0.4,0.8,1,1.5,1.6,2.2c0.7,0.6,1.5,1.2,2.4,1.6c1.1,0.5,2.3,0.7,3.5,0.7
	c1.2,0,2.3-0.2,3.3-0.7c1-0.5,1.8-1.2,2.5-2c0.7-0.8,1.2-1.7,1.6-2.8c0.4-1,0.6-2.1,0.6-3.3c0-1-0.2-2-0.5-2.9
	C74.9,208.6,74.5,207.8,73.8,207.2"/>
<path class="st1" d="M89.4,215c-0.6-0.6-1.4-1.1-2.3-1.3c-0.3-0.1-0.6-0.2-0.8-0.2c0.4-0.4,0.7-0.8,1.1-1.3c0.5-0.6,0.9-1.2,1.2-1.8
	c0.4-0.7,0.5-1.3,0.5-1.9c0-0.8-0.1-1.5-0.4-2.1c-0.3-0.6-0.7-1-1.2-1.4c-0.5-0.4-1-0.6-1.6-0.8c-1.1-0.3-2.4-0.3-3.6,0.2
	c-0.6,0.2-1.1,0.5-1.6,0.9c-0.5,0.4-0.9,0.7-1.2,1.2c-0.4,0.5-0.6,1-0.5,1.6c0,0.3,0.2,0.6,0.5,0.8c0.3,0.2,0.5,0.3,0.7,0.3
	c0.3,0,0.5-0.1,0.7-0.3c0.5-0.5,0.9-1,1.3-1.3c0.6-0.5,1.7-0.6,2.5,0.2c0.4,0.3,0.6,0.9,0.6,1.8c0,0.5-0.1,0.9-0.4,1.4
	c-0.3,0.5-0.7,1.1-1.2,1.6c-0.5,0.5-1,1-1.5,1.4c-0.6,0.4-1.1,0.7-1.5,1l-0.6,0.3c-0.8,0.4-0.9,0.9-0.9,1.2c0,0.8,0.5,1.4,1.3,1.4
	c0.3,0,0.6-0.1,1-0.4c0.2-0.1,0.4-0.3,0.6-0.3c0.3-0.1,0.5-0.2,0.8-0.2h0.2c0.5,0,0.9,0.1,1.3,0.2c0.4,0.1,0.8,0.3,1.1,0.5
	c0.3,0.3,0.6,0.6,0.9,0.9c0.2,0.4,0.4,0.8,0.6,1.3c0.1,0.5,0.2,0.9,0.2,1.4c0,0.9-0.2,1.7-0.5,2.4c-0.4,0.7-0.8,1.4-1.5,1.9
	c-0.6,0.6-1.4,1.1-2.2,1.5c-0.9,0.4-1.8,0.8-2.7,1c-0.3,0-0.6,0.2-0.7,0.4c-0.1,0.2-0.2,0.4-0.3,0.7c0,0.3,0,0.6,0.2,0.8
	c0.1,0.2,0.4,0.5,0.9,0.5h0l0,0c1.2,0,2.5-0.3,3.8-0.8c1.3-0.5,2.5-1.3,3.6-2.2c1.1-0.9,2-2,2.7-3.2c0.7-1.3,1.1-2.6,1.1-4
	c0-0.9-0.2-1.8-0.5-2.6C90.5,216.3,90,215.6,89.4,215"/>
<path class="st1" d="M108.5,214.7c-0.1-0.3-0.4-0.7-1-0.9c-0.6-0.2-1.2-0.1-1.6,0.5l-0.9,1.3c-0.2,0.3-0.5,0.7-0.7,1
	c-0.3,0.3-0.5,0.7-0.7,0.9c0,0-0.2,0.1-0.8,0.3c-0.6,0.1-1.2,0.2-1.9,0.2c-0.6,0-1.2,0-1.7,0c0.2-0.2,0.4-0.4,0.6-0.7
	c0.5-0.5,0.9-1,1.4-1.6c0.5-0.6,1-1.2,1.4-1.8c0.4-0.6,0.8-1.2,1.2-1.8c0.4-0.6,0.6-1.2,0.7-1.7c0.5-1.9,0.3-3.5-0.5-4.7
	c-0.9-1.2-2.3-1.8-4.1-1.8c-0.3,0-0.7,0-1,0c-0.4,0-0.8,0.1-1.2,0.2c-0.4,0.1-0.8,0.3-1.3,0.6c-0.4,0.3-0.9,0.7-1.3,1.2
	c-0.1,0.1-0.2,0.2-0.4,0.4l-0.3,0.5c-0.2,0.2-0.3,0.4-0.4,0.6c-0.1,0.3-0.2,0.5-0.2,0.7c0,0.4,0.2,0.8,0.5,1
	c0.4,0.3,0.8,0.3,1.2,0.1c0.3-0.1,0.5-0.4,0.7-0.8c0.1-0.2,0.2-0.4,0.4-0.6c0.1-0.2,0.4-0.3,0.7-0.5c0.2-0.1,0.5-0.2,1.2-0.2
	c1.2,0,1.6,0.5,1.7,0.7c0.3,0.5,0.3,1.2-0.1,2.1c-0.2,0.6-0.5,1.2-0.9,1.9c-0.4,0.7-0.9,1.5-1.4,2.2c-0.5,0.8-1.1,1.6-1.7,2.3
	c-0.6,0.8-1.2,1.5-1.8,2.1c-0.3,0.3-0.4,0.7-0.4,0.9c0,0.2,0,0.8,0.5,1.2c0.2,0.2,0.5,0.3,0.8,0.3l0.3,0c0.4,0,0.7-0.3,0.9-0.5
	c0.5,0,1.1,0,1.7,0c0.7,0,1.4,0,1.9,0c1.3,0.1,2.5,0.1,3.4,0.3c0.9,0.2,1.7,0.3,2.3,0.3l0.1,0c0.5,0,1-0.3,1.1-1.1
	c0-0.2,0.1-0.6,0.1-1c0.1-0.4,0.2-1,0.4-1.6c0.2-0.6,0.5-1.3,1-2.2l0.2-0.4L108.5,214.7z"/>
<polygon class="st1" points="12.6,59.1 77.8,28.1 142.9,59.1 "/>
<rect x="9.5" y="65.3" class="st1" width="136.5" height="6.2"/>
<rect x="9.5" y="161.5" class="st1" width="37.2" height="18.6"/>
<rect x="108.8" y="161.5" class="st1" width="37.2" height="18.6"/>
<rect x="59.1" y="161.5" class="st1" width="12.4" height="18.6"/>
<rect x="84" y="161.5" class="st1" width="12.4" height="18.6"/>
<polygon class="st1" points="20.4,77.7 21.9,155.3 9.5,155.3 11.1,77.7 "/>
<polygon class="st1" points="45.2,77.7 46.7,155.3 34.3,155.3 35.9,77.7 "/>
<polygon class="st1" points="70,77.7 71.6,155.3 59.1,155.3 60.7,77.7 "/>
<polygon class="st1" points="94.8,77.7 96.4,155.3 84,155.3 85.5,77.7 "/>
<polygon class="st1" points="119.6,77.7 121.2,155.3 108.8,155.3 110.3,77.7 "/>
<polygon class="st1" points="144.5,77.7 146,155.3 133.6,155.3 135.1,77.7 "/>
<polygon class="st1" points="77.8,12.6 9.5,45.2 9.5,52.9 77.8,20.3 146,52.9 146,45.2 "/>
</svg>
